<?xml version="1.0" encoding="utf-8"?>
<!-- Generator: Adobe Illustrator 16.0.0, SVG Export Plug-In . SVG Version: 6.00 Build 0)  -->
<!DOCTYPE svg PUBLIC "-//W3C//DTD SVG 1.1//EN" "http://www.w3.org/Graphics/SVG/1.1/DTD/svg11.dtd">
<svg version="1.1" id="Layer_1" xmlns="http://www.w3.org/2000/svg" xmlns:xlink="http://www.w3.org/1999/xlink" x="0px" y="0px"
	 width="315px" height="315px" viewBox="0 0 315 315" enable-background="new 0 0 315 315" xml:space="preserve">
<path fill="#616161" d="M86.568,161.143c3.33,0,6.184,0.743,8.561,2.229c1.847,1.155,3.342,2.767,4.479,4.849
	c1.137,2.075,1.823,4.47,2.054,7.177l-8.958,1.636c-0.265-2.544-0.989-4.523-2.177-5.943c-0.857-1.022-2.094-1.533-3.712-1.533
	c-1.714,0-3.02,0.764-3.91,2.279c-0.725,1.215-1.089,2.731-1.089,4.548c0,2.84,1.221,5.728,3.664,8.663
	c0.923,1.119,2.31,2.442,4.154,3.958c2.181,1.816,3.616,3.086,4.307,3.813c2.31,2.311,4.091,4.584,5.345,6.822
	c0.592,1.059,1.074,2.033,1.435,2.924c0.894,2.214,1.351,4.187,1.381,5.938c0.069,4.325-1.053,8.019-3.357,11.087
	c-1.522,2.075-3.664,3.543-6.437,4.403c-1.483,0.457-3.219,0.686-5.198,0.686c-3.661,0-6.699-0.902-9.102-2.719
	c-2.012-1.48-3.606-3.501-4.779-6.064c-1.17-2.55-1.853-5.479-2.051-8.782l8.909-0.638c0.397,3.609,1.351,6.232,2.867,7.856
	c1.122,1.228,2.412,1.805,3.862,1.745c2.048-0.072,3.679-1.077,4.9-3.026c0.625-0.956,0.938-2.328,0.938-4.108
	c0-2.575-1.173-5.138-3.513-7.677c-1.847-1.75-4.62-4.379-8.311-7.88c-3.101-2.996-5.297-5.691-6.584-8.073
	c-1.384-2.671-2.078-5.577-2.078-8.711c0-5.643,1.901-9.926,5.69-12.831C80.198,162.021,83.104,161.143,86.568,161.143z
	 M104.357,171.343h9.944v52.602h9.354v-52.602h9.899v-9.409h-29.197V171.343z M151.4,215.131c-1.486,0-2.758-0.523-3.808-1.558
	c-1.059-1.035-1.585-2.298-1.585-3.79v-47.85h-9.159v47.958c0,4.085,1.438,7.567,4.307,10.431c2.873,2.876,6.365,4.308,10.495,4.308
	c4.088,0,7.58-1.413,10.485-4.253c2.905-2.834,4.358-6.335,4.358-10.485v-47.958h-9.751v47.85c0,1.492-0.521,2.755-1.558,3.79
	C154.143,214.607,152.883,215.131,151.4,215.131z M186.712,161.886c4.091,0,7.567,1.453,10.419,4.355
	c2.852,2.899,4.277,6.389,4.277,10.443v32.413c0,4.09-1.438,7.586-4.301,10.491c-2.876,2.899-6.341,4.355-10.396,4.355h-14.696
	v-62.059H186.712z M187.013,171.439h-5.643v43.246h5.643c1.479,0,2.731-0.535,3.754-1.605c1.022-1.071,1.54-2.334,1.54-3.79v-32.461
	c0-1.479-0.518-2.755-1.559-3.808C189.708,171.969,188.457,171.439,187.013,171.439z M206.864,223.944h9.349V161.94h-9.349V223.944z
	 M226.031,165.478c2.899-2.891,6.389-4.331,10.442-4.331c4.121,0,7.628,1.449,10.516,4.349c2.888,2.906,4.331,6.401,4.331,10.491
	v33.852c0,4.126-1.455,7.627-4.354,10.515c-2.906,2.888-6.401,4.331-10.492,4.331c-4.126,0-7.622-1.449-10.491-4.355
	c-2.863-2.905-4.307-6.4-4.307-10.49v-33.852C221.676,171.866,223.131,168.359,226.031,165.478z M230.831,209.735
	c0,1.491,0.529,2.749,1.589,3.79c1.053,1.034,2.321,1.558,3.802,1.558c1.491,0,2.749-0.523,3.79-1.558
	c1.04-1.041,1.552-2.299,1.552-3.79v-33.94c0-1.486-0.512-2.744-1.552-3.791c-1.041-1.034-2.299-1.558-3.79-1.558
	c-1.48,0-2.749,0.523-3.802,1.558c-1.06,1.047-1.589,2.305-1.589,3.791V209.735z M218.271,155.052h-18.553v-66.5h15.003
	c3.959,0,7.532,1.043,10.715,3.128c2.725,1.769,4.674,4.509,5.835,8.221c0.632,1.979,0.95,4.331,0.95,7.053
	c0,4.458-1.185,8.025-3.549,10.714c-0.993,1.131-2.16,1.994-3.508,2.599c2.232,0.845,4.127,2.526,5.68,5.035
	c1.022,1.696,1.786,3.889,2.285,6.578c0.241,1.377,0.361,2.914,0.361,4.611c0,4.208-0.794,7.775-2.382,10.714
	c-1.239,2.295-2.984,4.133-5.246,5.513C223.317,154.273,220.785,155.052,218.271,155.052z M210.534,115.703h4.187
	c3.11,0,5.198-1.519,6.257-4.56c0.397-1.131,0.59-2.523,0.59-4.19c0-2.755-0.674-4.843-2.021-6.259
	c-1.239-1.306-2.852-1.961-4.825-1.961h-4.187V115.703z M214.721,145.135c3.394,0,5.739-1.75,7.057-5.251
	c0.457-1.2,0.692-2.578,0.692-4.136c0-3.712-0.716-6.416-2.13-8.115c-1.27-1.552-3.141-2.331-5.619-2.331h-4.187v19.833H214.721z
	 M250.707,88.605h-10.022v66.443h10.022V88.605z M107.647,152.249c-3.026,0.213-6.831,0.054-10.624,0.229
	c0.716-7.062,1.97-14.08,2.677-21.211c0.349-3.58,0.457-7.186,0.98-10.75c0.98-6.752,1.27-13.644,1.874-20.694
	c0,0.003,0.003,0.006,0.003,0.006v0.003c0.009,0.003,0.018,0.009,0.027,0.015v-0.015c-0.009,0-0.018-0.003-0.027-0.003
	c-0.138-3.742-0.262-7.893-0.358-11.638c4.406,0.568,8.317,1.66,12.6,2.361l11.192,27.109c0,0,0.015,0.027,0.024,0.061
	c0,0,0.006,0.009,0.006,0.012c0.045,0.139,0.15,0.442,0.229,0.671c0,0,0.869,2.638,0.969,3.507c0.003,0.021-0.006,0.036-0.006,0.051
	c1.282,4.346,2.027,9.065,2.951,13.697c0.078,0.403,0.168,0.801,0.253,1.204l3.549,15.418c-3.261,0.054-7.036-0.238-10.732-0.072
	c-0.743-5.466-2.13-10.26-3.372-15.208c-2.803-0.538-6.713-0.129-10.025-0.391c-0.809,2.379-0.809,5.137-1.146,7.817
	C108.36,147.054,107.9,149.701,107.647,152.249z M110.43,126.679c1.898,0.103,5.173,0.072,7.384-0.159
	c-0.361-2.869-0.99-5.79-1.606-8.672c-0.34-1.585-0.767-3.149-1.113-4.719c-0.015,0.009-0.036,0.024-0.036,0.024l-2.978-9.279
	c-0.036-0.082-0.084-0.157-0.124-0.241l-0.304,4.445c0.009,0.175,0.009,0.358,0,0.554
	C111.386,114.082,110.824,121.403,110.43,126.679z M162.914,144.988c-2.47-11.252-0.262-24.048,1.245-34.9
	c0.989-7.183,2.072-14.239,3.179-21.124c-0.009-0.172,0.069-0.265,0.193-0.307c5.031-0.063,9.809-0.174,14.176-0.009l8.903,45.663
	c0.265,1.116,0.451,2.271,0.668,3.423c0.006,0.051,0.018,0.099,0.029,0.147l3.394,17.394c-3.122-0.087-5.781-0.655-8.723-0.923
	c-1.938-4.364-4.043-8.542-4.867-14.068c-2.863-0.177-6.684-0.072-9.823-0.292c-0.036,0.201-0.036,0.406-0.049,0.607
	c-0.012,2.731,1.534,11.914,1.534,11.914l-7.982-1.558C164.009,149.734,163.338,147.069,162.914,144.988z M171.985,130.262
	c2.298,0.111,4.729,0.099,7.188,0.042c-1.257-8.308-2.652-16.474-4.379-24.295C173.58,113.823,172.768,122.029,171.985,130.262z
	 M74.75,152.736h9.814V97.521h10.389v-9.865H64.31v9.865h10.44V152.736z M136.52,110.112v0.135c0,0-0.322,0.659,0.644,4.383
	c0.334,1.642,0.767,3.239,1.356,4.794c1.044,2.75,1.985,6.001,3.218,8.627c0.322,0.836,0.662,1.696,1.026,2.61v0.024
	c-0.036,0.033-0.051,0.09-0.045,0.187c-0.033,1.916-0.006,4.069,0.045,6.308v15.49h0.575c3.047,0.22,7.486,0.063,10.425,0
	c0,0,0.71-11.111-0.911-14.534c-0.352-0.74-1.125-2.373-2.13-4.47c-2.237-5.525-3.904-11.709-4.202-18.667
	c-0.066-1.555-0.124-3.209-0.168-4.888h-0.009V97.936h10.383v-9.869h-30.644v9.869h10.438V110.112z M307.038,6.945v298.451H8.59
	V6.945H307.038z M294.225,19.759H21.403v272.825h272.821V19.759z"/>
</svg>
